<svg width="39" height="39" viewBox="0 0 39 39" fill="none" xmlns="http://www.w3.org/2000/svg">
<path d="M19.5 39C30.2696 39 39 30.2696 39 19.5C39 8.73045 30.2696 0 19.5 0C8.73045 0 0 8.73045 0 19.5C0 30.2696 8.73045 39 19.5 39Z" fill="url(#paint0_linear_1166_482)"/>
<path d="M26.968 23.8687C26.068 23.8687 25.958 22.8357 24.562 22.8357C23.166 22.8357 23.05 23.8687 22.148 23.8687C21.246 23.8687 21.132 22.8357 19.734 22.8357C18.336 22.8357 18.209 23.8687 17.328 23.8687C16.419 23.8687 16.32 22.8357 14.914 22.8357C13.508 22.8357 13.407 23.8687 12.5 23.8687V21.2858C12.5003 20.8747 12.6637 20.4807 12.9543 20.19C13.2449 19.8994 13.639 19.736 14.05 19.7358H14.567V15.0858H16.634V19.7358H18.7V15.0858H20.767V19.7358H22.834V15.0858H24.9V19.7358H25.417C25.828 19.736 26.2221 19.8994 26.5127 20.19C26.8033 20.4807 26.9667 20.8747 26.967 21.2858L26.968 23.8687ZM26.968 28.0028H12.5V24.9028C13.9 24.9028 14.01 23.8698 14.914 23.8698C15.818 23.8698 15.923 24.9028 17.328 24.9028C18.712 24.9028 18.853 23.8698 19.734 23.8698C20.643 23.8698 20.742 24.9028 22.148 24.9028C23.554 24.9028 23.658 23.8698 24.562 23.8698C25.45 23.8698 25.571 24.9028 26.968 24.9028V28.0028ZM15.6 14.5687C15.4642 14.5691 15.3297 14.5427 15.2042 14.4909C15.0787 14.4392 14.9647 14.3631 14.8687 14.2671C14.7727 14.1711 14.6966 14.057 14.6448 13.9315C14.5931 13.806 14.5666 13.6715 14.567 13.5357C14.567 12.5357 15.6 12.7928 15.6 11.4688C15.988 11.4688 16.633 12.4217 16.633 13.2767C16.633 14.1318 16.173 14.5687 15.6 14.5687ZM19.734 14.5687C19.5981 14.5693 19.4635 14.5429 19.3379 14.4912C19.2123 14.4395 19.0981 14.3634 19.002 14.2674C18.9059 14.1714 18.8298 14.0573 18.7779 13.9318C18.7261 13.8062 18.6996 13.6716 18.7 13.5357C18.7 12.5357 19.733 12.7928 19.733 11.4688C20.121 11.4688 20.766 12.4217 20.766 13.2767C20.766 14.1318 20.307 14.5687 19.734 14.5687ZM23.868 14.5687C23.7322 14.5691 23.5977 14.5427 23.4722 14.4909C23.3467 14.4392 23.2327 14.3631 23.1367 14.2671C23.0407 14.1711 22.9646 14.057 22.9128 13.9315C22.8611 13.806 22.8346 13.6715 22.835 13.5357C22.835 12.5357 23.868 12.7928 23.868 11.4688C24.255 11.4688 24.9 12.4217 24.9 13.2767C24.9 14.1318 24.441 14.5687 23.868 14.5687Z" fill="white"/>
<defs>
<linearGradient id="paint0_linear_1166_482" x1="19.5" y1="0" x2="19.5" y2="39" gradientUnits="userSpaceOnUse">
<stop stop-color="#46119F" stop-opacity="0"/>
<stop offset="1" stop-color="#46119F"/>
</linearGradient>
</defs>
</svg>
