<svg width="30" height="30" viewBox="0 0 30 30" fill="none" xmlns="http://www.w3.org/2000/svg">
<path d="M1.59464 30.0012C1.72026 30.0021 1.84477 29.9776 1.96075 29.9294C2.07672 29.8811 2.18178 29.8099 2.26964 29.7202L5.41964 26.5702L8.01964 29.1702C8.10791 29.2594 8.21305 29.3302 8.32893 29.3784C8.44481 29.4267 8.56912 29.4514 8.69464 29.4512C8.82026 29.4521 8.94477 29.4276 9.06075 29.3794C9.17672 29.3311 9.28178 29.2599 9.36964 29.1702C9.54856 28.9911 9.64907 28.7483 9.64907 28.4951C9.64907 28.242 9.54856 27.9992 9.36964 27.8202L6.76964 25.2201L10.2856 21.7041C12.6235 23.6934 15.6404 24.701 18.7044 24.516C21.7685 24.331 24.6422 22.9678 26.7238 20.7117C28.8054 18.4557 29.9335 15.4818 29.8718 12.4127C29.8101 9.3437 28.5634 6.41753 26.3928 4.24696C24.2223 2.07638 21.2961 0.829724 18.2271 0.768029C15.158 0.706333 12.1841 1.83438 9.92805 3.91597C7.672 5.99756 6.30875 8.87126 6.12377 11.9353C5.93878 14.9994 6.9464 18.0163 8.93564 20.3542L5.41964 23.8701L2.81964 21.2701C2.73137 21.1809 2.62623 21.1101 2.51035 21.0619C2.39447 21.0136 2.27016 20.9889 2.14464 20.9892C2.01902 20.9882 1.89451 21.0127 1.77854 21.0609C1.66256 21.1092 1.55751 21.1804 1.46964 21.2701C1.29072 21.4492 1.19021 21.692 1.19021 21.9452C1.19021 22.1983 1.29072 22.4411 1.46964 22.6201L4.06964 25.2201L0.919641 28.3701C0.786342 28.5038 0.69561 28.674 0.658887 28.8592C0.622163 29.0444 0.641091 29.2363 0.713285 29.4107C0.785479 29.5852 0.907706 29.7343 1.06455 29.8394C1.2214 29.9445 1.40585 30.0008 1.59464 30.0012ZM10.9396 5.58815C12.5705 3.9559 14.7169 2.93964 17.013 2.71253C19.3092 2.48542 21.613 3.06151 23.532 4.34265C25.451 5.62379 26.8665 7.53069 27.5371 9.73844C28.2077 11.9462 28.0921 14.3182 27.2099 16.4502C26.3277 18.5823 24.7335 20.3424 22.699 21.4308C20.6644 22.5192 18.3155 22.8685 16.0523 22.4191C13.7891 21.9697 11.7518 20.7495 10.2874 18.9664C8.82309 17.1832 8.02235 14.9475 8.02164 12.6401C8.01862 11.3303 8.2749 10.0328 8.77571 8.82246C9.27653 7.61213 10.012 6.5129 10.9396 5.58815Z" fill="white"/>
</svg>
