<svg width="39" height="39" viewBox="0 0 39 39" fill="none" xmlns="http://www.w3.org/2000/svg">
<path d="M19.5 39C30.2696 39 39 30.2696 39 19.5C39 8.73045 30.2696 0 19.5 0C8.73045 0 0 8.73045 0 19.5C0 30.2696 8.73045 39 19.5 39Z" fill="url(#paint0_linear_1166_417)"/>
<path d="M28.0328 10.7578H23.2558C23.1088 10.7738 22.9728 10.8435 22.874 10.9536C22.7752 11.0637 22.7205 11.2064 22.7205 11.3543C22.7205 11.5022 22.7752 11.645 22.874 11.755C22.9728 11.8651 23.1088 11.9349 23.2558 11.9508H26.5628L22.6068 15.9348C21.1428 14.6809 19.2505 14.0421 17.326 14.1521C15.4016 14.2621 13.5944 15.1125 12.2829 16.5251C10.9713 17.9377 10.2573 19.803 10.2902 21.7303C10.323 23.6576 11.1004 25.4974 12.4593 26.8644C13.8183 28.2315 15.6535 29.0197 17.5805 29.064C19.5076 29.1083 21.3771 28.4052 22.7974 27.1021C24.2178 25.799 25.0788 23.9968 25.2002 22.0731C25.3217 20.1493 24.694 18.2532 23.4488 16.7818L27.4318 12.8208V16.1278C27.4227 16.2116 27.4314 16.2963 27.4572 16.3765C27.4831 16.4567 27.5255 16.5306 27.5818 16.5933C27.638 16.656 27.7069 16.7061 27.7838 16.7404C27.8608 16.7748 27.9441 16.7925 28.0283 16.7925C28.1126 16.7925 28.1959 16.7748 28.2728 16.7404C28.3498 16.7061 28.4186 16.656 28.4749 16.5933C28.5312 16.5306 28.5736 16.4567 28.5994 16.3765C28.6253 16.2963 28.6339 16.2116 28.6248 16.1278V11.3548C28.6256 11.2766 28.6109 11.199 28.5815 11.1266C28.5521 11.0541 28.5086 10.9882 28.4535 10.9327C28.3984 10.8771 28.3329 10.8331 28.2607 10.8031C28.1885 10.7731 28.111 10.7577 28.0328 10.7578ZM24.0238 21.5898C24.0252 23.0316 23.5265 24.4293 22.6128 25.5447C21.699 26.66 20.4268 27.4239 19.0128 27.7062C17.5989 27.9885 16.1308 27.7717 14.8588 27.0928C13.5869 26.4139 12.5897 25.3148 12.0373 23.983C11.4849 22.6512 11.4114 21.169 11.8295 19.7891C12.2475 18.4093 13.1312 17.217 14.3298 16.4157C15.5285 15.6144 16.9679 15.2536 18.4029 15.3947C19.8378 15.5359 21.1793 16.1703 22.1988 17.1898C22.7788 17.7661 23.2388 18.4517 23.5521 19.207C23.8653 19.9623 24.0257 20.7722 24.0238 21.5898Z" fill="white"/>
<defs>
<linearGradient id="paint0_linear_1166_417" x1="19.5" y1="0" x2="19.5" y2="39" gradientUnits="userSpaceOnUse">
<stop stop-color="#46119F" stop-opacity="0"/>
<stop offset="1" stop-color="#46119F"/>
</linearGradient>
</defs>
</svg>
