<svg width="30" height="31" viewBox="0 0 30 31" fill="none" xmlns="http://www.w3.org/2000/svg">
<path d="M28.4764 0.750001H20.8194C20.5657 0.750001 20.3225 0.850774 20.1431 1.03015C19.9637 1.20953 19.8629 1.45282 19.8629 1.7065C19.8629 1.96018 19.9637 2.20347 20.1431 2.38285C20.3225 2.56223 20.5657 2.663 20.8194 2.663H26.1194L19.7774 9.047C17.4303 7.03823 14.397 6.01551 11.3128 6.19302C8.22857 6.37053 5.33264 7.7345 3.2315 9.99928C1.13037 12.2641 -0.0129904 15.254 0.0408834 18.3428C0.0947573 21.4317 1.34168 24.3799 3.52052 26.5701C5.69935 28.7602 8.64109 30.0224 11.7296 30.0922C14.8182 30.162 17.814 29.0342 20.0896 26.9448C22.3652 24.8554 23.7441 21.9665 23.9376 18.8833C24.131 15.8 23.124 12.7615 21.1274 10.404L27.5124 4.055V9.355C27.5124 9.60855 27.6131 9.85171 27.7924 10.031C27.9717 10.2103 28.2149 10.311 28.4684 10.311C28.722 10.311 28.9651 10.2103 29.1444 10.031C29.3237 9.85171 29.4244 9.60855 29.4244 9.355V1.706C29.4256 1.5808 29.402 1.4566 29.3548 1.3406C29.3077 1.2246 29.2381 1.1191 29.1499 1.03019C29.0617 0.941283 28.9568 0.870743 28.8412 0.822649C28.7256 0.774555 28.6016 0.749863 28.4764 0.750001ZM22.0494 18.11C22.0517 20.421 21.2524 22.6612 19.7879 24.4489C18.3233 26.2365 16.2842 27.4609 14.0179 27.9134C11.7517 28.3659 9.39866 28.0185 7.35991 26.9303C5.32116 25.8422 3.72287 24.0807 2.83748 21.946C1.95208 19.8114 1.83438 17.4358 2.50443 15.2241C3.17449 13.0124 4.59082 11.1015 6.51203 9.81715C8.43323 8.5328 10.7404 7.95447 13.0403 8.18074C15.3401 8.40701 17.4903 9.42387 19.1244 11.058C20.0541 11.9816 20.7913 13.0805 21.2934 14.291C21.7954 15.5015 22.0524 16.7995 22.0494 18.11Z" fill="white"/>
</svg>
