<svg width="8" height="14" viewBox="0 0 8 14" fill="none" xmlns="http://www.w3.org/2000/svg">
<path d="M5.04471 7.18178L0.264709 2.40478C0.180806 2.32116 0.114232 2.22181 0.0688076 2.11241C0.0233828 2.00302 0 1.88573 0 1.76728C0 1.64882 0.0233828 1.53154 0.0688076 1.42214C0.114232 1.31274 0.180806 1.21339 0.264709 1.12978C0.435035 0.961533 0.6648 0.867188 0.904209 0.867188C1.14362 0.867188 1.37338 0.961533 1.54371 1.12978L6.95971 6.54178C7.1237 6.70593 7.21794 6.92708 7.22279 7.15905C7.22763 7.39103 7.1427 7.61592 6.98571 7.78678L1.54671 13.2368C1.46299 13.3208 1.36355 13.3874 1.25407 13.433C1.14459 13.4785 1.0272 13.5021 0.908624 13.5023C0.790043 13.5024 0.672588 13.4793 0.562963 13.4341C0.453337 13.3889 0.35369 13.3225 0.26971 13.2388C0.185729 13.1551 0.119061 13.0556 0.0735102 12.9461C0.0279598 12.8367 0.00442003 12.7193 0.00423431 12.6007C0.0040486 12.4821 0.0272206 12.3647 0.0724277 12.255C0.117635 12.1454 0.183992 12.0458 0.26771 11.9618L5.04471 7.18178Z" fill="white"/>
</svg>
