<svg width="39" height="39" viewBox="0 0 39 39" fill="none" xmlns="http://www.w3.org/2000/svg">
<path d="M19.5 39C30.2696 39 39 30.2696 39 19.5C39 8.73045 30.2696 0 19.5 0C8.73045 0 0 8.73045 0 19.5C0 30.2696 8.73045 39 19.5 39Z" fill="url(#paint0_linear_1166_436)"/>
<path d="M19.8554 18.4969C17.7864 17.9589 17.1204 17.4029 17.1204 16.5369C17.1204 15.5429 18.0414 14.8509 19.5814 14.8509C21.2044 14.8509 21.8054 15.6259 21.8604 16.7649H23.8794C23.8572 15.9399 23.5549 15.1471 23.0222 14.5167C22.4895 13.8864 21.7581 13.4562 20.9484 13.2969V11.2969H18.2144V13.2659C16.4454 13.6489 15.0234 14.7969 15.0234 16.5569C15.0234 18.6629 16.7644 19.7109 19.3084 20.3219C21.5874 20.8689 22.0434 21.6709 22.0434 22.5219C22.0434 23.1509 21.5964 24.1539 19.5824 24.1539C17.7044 24.1539 16.9664 23.3149 16.8654 22.2399H14.8594C14.929 23.1199 15.3013 23.9485 15.9129 24.585C16.5246 25.2215 17.3379 25.6264 18.2144 25.7309V27.7089H20.9494V25.7489C22.7274 25.4119 24.1404 24.3819 24.1404 22.5129C24.1394 19.9209 21.9244 19.0359 19.8554 18.4969Z" fill="white"/>
<defs>
<linearGradient id="paint0_linear_1166_436" x1="19.5" y1="0" x2="19.5" y2="39" gradientUnits="userSpaceOnUse">
<stop stop-color="#46119F" stop-opacity="0"/>
<stop offset="1" stop-color="#46119F"/>
</linearGradient>
</defs>
</svg>
