<svg width="39" height="39" viewBox="0 0 39 39" fill="none" xmlns="http://www.w3.org/2000/svg">
<path d="M19.5 39C30.2696 39 39 30.2696 39 19.5C39 8.73045 30.2696 0 19.5 0C8.73045 0 0 8.73045 0 19.5C0 30.2696 8.73045 39 19.5 39Z" fill="url(#paint0_linear_1166_634)"/>
<path d="M13.4688 23.063V26.01H16.4158L25.1087 17.316L22.1608 14.368L13.4688 23.063ZM27.3878 15.036C27.4606 14.9633 27.5183 14.877 27.5577 14.7819C27.5971 14.6868 27.6174 14.585 27.6174 14.482C27.6174 14.3791 27.5971 14.2772 27.5577 14.1822C27.5183 14.0871 27.4606 14.0008 27.3878 13.928L25.5487 12.089C25.476 12.0162 25.3897 11.9585 25.2946 11.9191C25.1996 11.8797 25.0977 11.8594 24.9947 11.8594C24.8918 11.8594 24.7899 11.8797 24.6949 11.9191C24.5998 11.9585 24.5135 12.0162 24.4408 12.089L23.0017 13.527L25.9487 16.474L27.3867 15.036H27.3878Z" fill="white"/>
<defs>
<linearGradient id="paint0_linear_1166_634" x1="19.5" y1="0" x2="19.5" y2="39" gradientUnits="userSpaceOnUse">
<stop stop-color="#46119F" stop-opacity="0"/>
<stop offset="1" stop-color="#46119F"/>
</linearGradient>
</defs>
</svg>
