<svg width="39" height="39" viewBox="0 0 39 39" fill="none" xmlns="http://www.w3.org/2000/svg">
<path d="M19.5 39C30.2696 39 39 30.2696 39 19.5C39 8.73045 30.2696 0 19.5 0C8.73045 0 0 8.73045 0 19.5C0 30.2696 8.73045 39 19.5 39Z" fill="url(#paint0_linear_1166_665)"/>
<path d="M19.5037 11.5391C18.7716 11.5385 18.0465 11.6824 17.37 11.9623C16.6935 12.2422 16.0788 12.6528 15.5611 13.1705C15.0434 13.6882 14.6328 14.3029 14.3529 14.9794C14.073 15.6559 13.9292 16.3809 13.9297 17.1131C13.9297 21.2941 19.5037 27.4651 19.5037 27.4651C19.5037 27.4651 25.0777 21.2941 25.0777 17.1131C25.0782 16.3809 24.9344 15.6559 24.6545 14.9794C24.3745 14.3029 23.964 13.6882 23.4463 13.1705C22.9286 12.6528 22.3139 12.2422 21.6374 11.9623C20.9609 11.6824 20.2358 11.5385 19.5037 11.5391ZM19.5037 19.1041C19.1099 19.1041 18.725 18.9873 18.3975 18.7685C18.0701 18.5497 17.8149 18.2388 17.6642 17.875C17.5136 17.5112 17.4741 17.1109 17.5509 16.7246C17.6278 16.3384 17.8174 15.9837 18.0958 15.7052C18.3743 15.4268 18.729 15.2371 19.1153 15.1603C19.5015 15.0835 19.9018 15.1229 20.2656 15.2736C20.6294 15.4243 20.9404 15.6795 21.1591 16.0069C21.3779 16.3343 21.4947 16.7193 21.4947 17.1131C21.4947 17.6411 21.2849 18.1475 20.9115 18.5209C20.5382 18.8943 20.0317 19.1041 19.5037 19.1041Z" fill="white"/>
<defs>
<linearGradient id="paint0_linear_1166_665" x1="19.5" y1="0" x2="19.5" y2="39" gradientUnits="userSpaceOnUse">
<stop stop-color="#46119F" stop-opacity="0"/>
<stop offset="1" stop-color="#46119F"/>
</linearGradient>
</defs>
</svg>
