<svg width="39" height="39" viewBox="0 0 39 39" fill="none" xmlns="http://www.w3.org/2000/svg">
<path d="M19.5 39C30.2696 39 39 30.2696 39 19.5C39 8.73045 30.2696 0 19.5 0C8.73045 0 0 8.73045 0 19.5C0 30.2696 8.73045 39 19.5 39Z" fill="url(#paint0_linear_1166_456)"/>
<path d="M19.5 28.5C23.9183 28.5 27.5 24.9183 27.5 20.5C27.5 16.0817 23.9183 12.5 19.5 12.5C15.0817 12.5 11.5 16.0817 11.5 20.5C11.5 24.9183 15.0817 28.5 19.5 28.5Z" stroke="white"/>
<path d="M19.5 25.5C22.2614 25.5 24.5 23.2614 24.5 20.5C24.5 17.7386 22.2614 15.5 19.5 15.5C16.7386 15.5 14.5 17.7386 14.5 20.5C14.5 23.2614 16.7386 25.5 19.5 25.5Z" fill="white"/>
<defs>
<linearGradient id="paint0_linear_1166_456" x1="19.5" y1="0" x2="19.5" y2="39" gradientUnits="userSpaceOnUse">
<stop stop-color="#46119F" stop-opacity="0"/>
<stop offset="1" stop-color="#46119F"/>
</linearGradient>
</defs>
</svg>
